<svg id="sprite" xmlns="http://www.w3.org/2000/svg">
	<symbol id="link" viewBox="0 0 16 16">
		<title>Link</title>
      <g>
      	<path d="M8.5,2C7.119,2,6,3.119,6,4.5v3c0,1.025,0.618,1.903,1.5,2.289V8.61C7.195,8.335,7,7.941,7,7.5v-3
      		C7,3.673,7.673,3,8.5,3S10,3.673,10,4.5v3c0,0.441-0.195,0.835-0.5,1.11v1.179C10.383,9.403,11,8.525,11,7.5v-3
      		C11,3.119,9.881,2,8.5,2z"/>
      </g>
      <path d="M7.5,5.211V6.39C7.805,6.665,8,7.059,8,7.5v3C8,11.327,7.327,12,6.5,12S5,11.327,5,10.5v-3
      	c0-0.441,0.195-0.835,0.5-1.11V5.211C4.618,5.597,4,6.475,4,7.5v3C4,11.881,5.119,13,6.5,13S9,11.881,9,10.5v-3
      	C9,6.475,8.382,5.597,7.5,5.211z"/>
	</symbol>
	<symbol id="comment" viewBox="0 0 16 16">
		<title>Comment</title>
		<path d="M12,4H4C2.896,4,2,4.896,2,6v3c0,1.104,0.896,2,2,2h1v3.5L8.5,11H12c1.104,0,2-0.896,2-2V6
			C14,4.896,13.104,4,12,4z"/>
	</symbol>
	<symbol id="digg" viewBox="0 0 16 16">
		<title>Digg</title>
		<path d="M13,8c0-0.552-0.448-1-1-1H8.75C8.75,7,9,6,9,4.5C9,3.125,8,2,7.5,2S7,3,7,3c0,3-1.5,5-2.5,5H3v5
			c0,0,0.5,0,1,0c1,0,1.5,1,3,1c0.254,0,3.5,0,3.5,0c0.552,0,1-0.448,1-1s-0.448-1-1-1H11c0.552,0,1-0.448,1-1
			c0-0.208-0.063-0.399-0.171-0.56c0.39-0.137,0.671-0.504,0.671-0.94c0-0.208-0.063-0.399-0.171-0.56C12.719,8.804,13,8.437,13,8z"
			/>
	</symbol>
	<symbol id="clock" viewBox="0 0 16 16">
		<title>Clock</title>
		<path d="M7.5,2C4.462,2,2,4.462,2,7.5C2,10.537,4.462,13,7.5,13c3.037,0,5.5-2.463,5.5-5.5C13,4.462,10.537,2,7.5,2z M7.5,12
			C5.015,12,3,9.985,3,7.5S5.015,3,7.5,3C9.984,3,12,5.015,12,7.5S9.984,12,7.5,12z M8,4H7v3.707l2.621,2.621l0.707-0.707L8,7.293V4z
			"/>
	</symbol>
	<symbol id="standard" viewBox="0 0 16 16">
		<title>Standard</title>
		<path d="M4,5v1h8V5H4z M9,7H4v1h5V7z M10,8h2V7h-2V8z M7,10h5V9H7V10z M6,9H4v1h2V9z M4,12h6v-1H4V12z"/>
	</symbol>
	<symbol id="website" viewBox="0 0 16 16">
		<title>Website</title>
		<path d="M8,2C4.687,2,2,4.687,2,8s2.687,6,6,6s6-2.687,6-6S11.313,2,8,2z M3.72,5.527l0.283,0.081
			L3.767,5.629L3.63,5.678L3.595,5.686c0.034-0.064,0.067-0.128,0.103-0.19L3.72,5.527z M8,13c-0.155,0-0.301-0.032-0.453-0.046
			l0.26-0.207l0.015-0.129l-0.134-0.183l0.282,0.04l0.312-0.71l0.392-0.241l0.216-0.532l0.178-0.511l-0.01-0.448L8.813,9.879
			L8.438,9.848l-0.37-0.079l0.065-0.13L7.872,9.713l0.064-0.381L7.871,9.289L7.598,9.138L7.219,8.875L6.69,8.706L6.536,8.652
			L6.422,8.841l0.019-0.209L6.133,8.77L5.665,8.878L5.56,8.927L5.716,9l0.117-0.085l0.065,0.037L5.839,9.434l-0.11,0.414l-0.06,0.129
			l0.083,0.218L6,10.635l0.526,0.514l0.087,0.491l0.075,1.075l0.032,0.099C4.585,12.244,3,10.312,3,8c0-0.498,0.095-0.969,0.231-1.423
			L3.44,6.939l0.002,0.281l0.04,0.179L3.56,7.496l0.039,0.13l0.064,0.08l0.005-0.134L3.61,7.056l0.041,0.127l0.173,0.369L4.214,8.17
			l0.34,0.142l0.307,0.074l0.316-0.204l0.116-0.34l-0.447,0.24L4.614,7.829l0.051-0.34l0.385-0.31l0.3,0.002L5.711,7.18l0.185,0.371
			L5.959,7.35l0.202-0.464l0.256-0.209l0.076-0.183l0.2-0.158l0.273-0.151l0.111-0.129L7.321,5.94l0.203-0.044L7.398,6.043
			l0.359-0.146L7.669,5.841L7.563,5.721l0.041-0.134L7.27,5.679l0.428-0.168l0.584-0.149l-0.16-0.157L8.042,4.774L7.816,4.854
			L7.745,4.71L7.487,4.579L7.229,4.756L7.077,5.052L6.814,5.321L6.6,5.102l-0.3-0.141L6.193,4.844l0.431-0.33l0.282-0.163l0.584-0.193
			L7.118,4.192L7.032,4.014l-0.22-0.023L6.768,4.132L6.534,4.189L6.162,4.142L5.89,4.203L5.64,4.139L5.267,4.043L4.968,4.052
			C5.812,3.402,6.855,3,8,3c0.563,0,1.096,0.114,1.602,0.287L9.369,3.3l-0.54,0.132l-0.251,0.06l0.173,0.134L9.11,3.778l0.097,0.17
			L9.075,4.203l0.049,0.466l0.468-0.226l0.604-0.268l0.468-0.081l0.062-0.07L10.56,4.004l0.036-0.073l0.257,0.041l-0.159-0.139
			l0.034-0.014c0.602,0.394,1.106,0.914,1.49,1.521l-0.113,0.091l-0.316,0.172l-0.161,0.065l0.188,0.208l-0.067,0.171l-0.363-0.021
			l-0.104,0.197L11.261,6.54l0.184,0.072l0.396-0.091l0.203-0.274l0.186-0.166l0.226-0.021l0.105-0.052l0.043,0.04
			c0.12,0.284,0.212,0.583,0.278,0.891l-0.189-0.082L12.49,6.569l-0.519,0.056l-0.216,0.075l-0.295-0.003L11.172,6.97l-0.102,0.2
			l-0.146,0.162L10.82,7.434l-0.178,0.274L10.604,7.85L10.56,7.909l-0.007,0.424l0.006,0.254l0.305,0.418l0.312,0.227l0.412-0.024
			l0.436-0.165l0.184,0.155l0.198,0.059l0.271,0.197l-0.117,0.397l0.051,0.082C11.852,11.733,10.071,13,8,13z"/>
	</symbol>
	<symbol id="lock" viewBox="0 0 16 16">
		<title>Lock</title>
		<path d="M12,7V6c0-2.209-1.791-4-4-4S4,3.791,4,6v1C3.448,7,3,7.448,3,8v5c0,0.553,0.448,1,1,1h8
			c0.553,0,1-0.447,1-1V8C13,7.448,12.553,7,12,7z M6,7V6c0-1.104,0.896-2,2-2s2,0.896,2,2v1H6z"/>
	</symbol>
	<symbol id="summary" viewBox="0 0 16 16">
		<title>Summary</title>
		<path d="M5.5,8C5.224,8,5,8.224,5,8.5S5.224,9,5.5,9S6,8.776,6,8.5S5.776,8,5.5,8z M5.5,6
			C5.224,6,5,6.224,5,6.5S5.224,7,5.5,7S6,6.776,6,6.5S5.776,6,5.5,6z M5.5,10C5.224,10,5,10.224,5,10.5S5.224,11,5.5,11
			S6,10.776,6,10.5S5.776,10,5.5,10z M7,9h3V8H7V9z M7,11h3v-1H7V11z M10,3c0-0.553-0.447-1-1-1H6C5.448,2,5,2.447,5,3H3v10h9V3H10z
			 M6.5,3h2C8.776,3,9,3.224,9,3.5S8.776,4,8.5,4h-2C6.224,4,6,3.776,6,3.5S6.224,3,6.5,3z M11,12H4V4h1v1h5V4h1V12z M7,7h3V6H7V7z"/>
	</symbol>
</svg>
