<svg id="sprite" xmlns="http://www.w3.org/2000/svg">
	<symbol id="link" viewBox="0 0 16 16">
		<title>Link</title>
      <g>
      	<path d="M8.5,2C7.119,2,6,3.119,6,4.5v3c0,1.025,0.618,1.903,1.5,2.289V8.61C7.195,8.335,7,7.941,7,7.5v-3
      		C7,3.673,7.673,3,8.5,3S10,3.673,10,4.5v3c0,0.441-0.195,0.835-0.5,1.11v1.179C10.383,9.403,11,8.525,11,7.5v-3
      		C11,3.119,9.881,2,8.5,2z"/>
      </g>
      <path d="M7.5,5.211V6.39C7.805,6.665,8,7.059,8,7.5v3C8,11.327,7.327,12,6.5,12S5,11.327,5,10.5v-3
      	c0-0.441,0.195-0.835,0.5-1.11V5.211C4.618,5.597,4,6.475,4,7.5v3C4,11.881,5.119,13,6.5,13S9,11.881,9,10.5v-3
      	C9,6.475,8.382,5.597,7.5,5.211z"/>
	</symbol>
	<symbol id="comment" viewBox="0 0 16 16">
		<title>Comment</title>
		<path d="M12,4H4C2.896,4,2,4.896,2,6v3c0,1.104,0.896,2,2,2h1v3.5L8.5,11H12c1.104,0,2-0.896,2-2V6
			C14,4.896,13.104,4,12,4z"/>
	</symbol>
	<symbol id="digg" viewBox="0 0 16 16">
		<title>Digg</title>
		<path d="M13,8c0-0.552-0.448-1-1-1H8.75C8.75,7,9,6,9,4.5C9,3.125,8,2,7.5,2S7,3,7,3c0,3-1.5,5-2.5,5H3v5
			c0,0,0.5,0,1,0c1,0,1.5,1,3,1c0.254,0,3.5,0,3.5,0c0.552,0,1-0.448,1-1s-0.448-1-1-1H11c0.552,0,1-0.448,1-1
			c0-0.208-0.063-0.399-0.171-0.56c0.39-0.137,0.671-0.504,0.671-0.94c0-0.208-0.063-0.399-0.171-0.56C12.719,8.804,13,8.437,13,8z"
			/>
	</symbol>
	<symbol id="clock" viewBox="0 0 16 16">
		<title>Clock</title>
		<path d="M7.5,2C4.462,2,2,4.462,2,7.5C2,10.537,4.462,13,7.5,13c3.037,0,5.5-2.463,5.5-5.5C13,4.462,10.537,2,7.5,2z M7.5,12
			C5.015,12,3,9.985,3,7.5S5.015,3,7.5,3C9.984,3,12,5.015,12,7.5S9.984,12,7.5,12z M8,4H7v3.707l2.621,2.621l0.707-0.707L8,7.293V4z
			"/>
	</symbol>
	<symbol id="standard" viewBox="0 0 16 16">
		<title>Standard</title>
		<path d="M4,5v1h8V5H4z M9,7H4v1h5V7z M10,8h2V7h-2V8z M7,10h5V9H7V10z M6,9H4v1h2V9z M4,12h6v-1H4V12z"/>
	</symbol>
</svg>
